<?xml version="1.0" encoding="utf-8"?>
<!-- Generator: Adobe Illustrator 24.2.1, SVG Export Plug-In . SVG Version: 6.00 Build 0)  -->
<svg version="1.1" id="Calque_1" xmlns="http://www.w3.org/2000/svg" xmlns:xlink="http://www.w3.org/1999/xlink" x="0px" y="0px"
	 viewBox="0 0 155.7 90.8" style="enable-background:new 0 0 155.7 90.8;" xml:space="preserve">
<style type="text/css">
	.st0{fill:#38404F;}
	.st1{fill:#424A58;}
	.st2{fill:none;}
	.st3{fill-rule:evenodd;clip-rule:evenodd;fill:#FFFFFF;}
	.st4{fill:#424B5D;}
</style>
<g>
	<g>
		<path class="st0" d="M5,79c-2.2,0-4-1.8-4-4V5c0-2.2,1.8-4,4-4h90c2.2,0,4,1.8,4,4v70c0,2.2-1.8,4-4,4H5z"/>
		<g>
			<path class="st1" d="M95,2c1.7,0,3,1.3,3,3v70c0,1.7-1.3,3-3,3H5c-1.7,0-3-1.3-3-3V5c0-1.7,1.3-3,3-3H95 M95,0H5C2.2,0,0,2.2,0,5
				v70c0,2.8,2.2,5,5,5h90c2.8,0,5-2.2,5-5V5C100,2.2,97.8,0,95,0L95,0z"/>
		</g>
	</g>
	<polyline class="st1" points="1.8,62 8,68.2 1.8,74.3 	"/>
	<rect x="94.4" y="59.5" class="st2" width="3.6" height="3.6"/>
	<rect x="78.9" y="37.7" class="st2" width="3.6" height="3.6"/>
	<path class="st1" d="M30,14.9H0V5c0-2.8,2.2-5,5-5h30v9.9C35,12.6,32.8,14.9,30,14.9z"/>
	<g>
		<rect x="2" y="31" class="st1" width="56.1" height="3"/>
	</g>
	<rect x="2" y="31" class="st1" width="13.4" height="3"/>
	<path class="st1" d="M60.5,34H47.8c-0.8,0-1.5-0.7-1.5-1.5l0,0c0-0.8,0.7-1.5,1.5-1.5h12.8c0.8,0,1.5,0.7,1.5,1.5l0,0
		C62,33.3,61.3,34,60.5,34z"/>
	<rect x="22.1" y="62.4" class="st2" width="3" height="11.5"/>
	<path class="st1" d="M71.9,55.5H15.2c-1.8,0-3.2-1.4-3.2-3.2v-5c0-1.8,1.4-3.2,3.2-3.2h56.7c1.8,0,3.2,1.4,3.2,3.2v5
		C75.1,54.1,73.7,55.5,71.9,55.5z"/>
	<path class="st1" d="M71.9,73.8H15.2c-1.8,0-3.2-1.4-3.2-3.2v-5c0-1.8,1.4-3.2,3.2-3.2h56.7c1.8,0,3.2,1.4,3.2,3.2v5
		C75.1,72.4,73.7,73.8,71.9,73.8z"/>
	<path class="st1" d="M33.1,27.1H6.5c-1,0-1.9-0.8-1.9-1.9v-4.3c0-1,0.8-1.9,1.9-1.9h26.7c1,0,1.9,0.8,1.9,1.9v4.3
		C35,26.2,34.2,27.1,33.1,27.1z"/>
	<path class="st1" d="M94,39.6H67.4c-1,0-1.9-0.8-1.9-1.9v-4.3c0-1,0.8-1.9,1.9-1.9H94c1,0,1.9,0.8,1.9,1.9v4.3
		C95.9,38.7,95.1,39.6,94,39.6z"/>
	<g>
		<path class="st3" d="M125.4,89.8c-2.8,0-5.6-0.6-8.2-1.8l-20.7-6.2c-2.6-0.4-8.8-1.6-10.9-4.9c-0.7-1.1-0.9-2.3-0.6-3.5
			c0.8-3.1,5.5-5.4,14.2-7.1c0.4-0.5,1-1.5,0-3.8l-15-26c-1.9-3.3-1-7.3,2-9c0.9-0.5,1.9-0.8,2.9-0.8c2.4,0,4.6,1.4,5.9,3.6
			l10.1,17.5c0.4-0.3,0.7-0.7,1.1-1l-2.1-3.7c-1.9-3.3-1-7.3,2-9c0.9-0.5,1.9-0.8,2.9-0.8c2.4,0,4.6,1.4,5.9,3.6l2.1,3.6
			c0.5-0.2,0.9-0.4,1.4-0.5c-0.6-1.4-0.8-2.9-0.5-4.4c0.4-1.7,1.4-3.1,2.8-4c0.9-0.5,1.9-0.8,2.9-0.8c2.4,0,4.6,1.4,5.9,3.6l1.7,3
			c0.3,0,0.5,0,0.8,0c0.5,0,1,0,1.5,0c0.1-1.8,1.1-3.5,2.7-4.5c0.8-0.5,1.8-0.7,2.7-0.7c1.9,0,3.8,1,4.7,2.7l4.9,8.6
			c0.7,0.8,1.2,1.8,1.6,2.8c8.1,17,4.9,30.7-9,38.5l-0.3,0.2c-1.1,0.6-2.2,1.2-3.3,1.7c-0.3,0.1-0.6,0.3-0.9,0.4
			C132.7,88.9,128.9,89.8,125.4,89.8L125.4,89.8z"/>
		<path class="st4" d="M89.2,27.6c1.9,0,3.9,1.1,5,3.1L105,49.3c0.8-0.8,1.7-1.6,2.6-2.4l-2.6-4.4c-1.6-2.8-0.9-6.2,1.6-7.7
			c0.7-0.4,1.6-0.6,2.4-0.6c1.9,0,3.9,1.1,5,3.1l2.5,4.4c1.1-0.5,2.1-0.9,3.2-1.3l-0.2-0.4c-1.6-2.8-0.9-6.2,1.6-7.7
			c0.7-0.4,1.6-0.6,2.4-0.6c1.9,0,3.9,1.1,5,3.1l2,3.5c0.5,0,0.9,0,1.4,0c0.9,0,1.7,0,2.6,0.1c-0.3-1.8,0.5-3.7,2.2-4.7
			c0.7-0.4,1.5-0.6,2.2-0.6c1.5,0,3,0.8,3.9,2.2l5,8.6c0.6,0.8,1.1,1.6,1.5,2.6c12.6,26.6-6.1,35.8-8.9,37.4
			c-1.1,0.6-2.1,1.2-3.2,1.7c-0.3,0.1-0.6,0.3-0.9,0.4c-3.7,1.7-7.3,2.7-11,2.7c-2.6,0-5.2-0.5-7.8-1.8l-20.8-6.2
			c-6-0.9-11.8-3.3-10.7-7.2c0.8-3,6.8-5.1,13.7-6.5c0,0,0,0,0,0c1.2-1.1,1.3-2.9,0.4-5.1L85.2,35.9c-1.6-2.8-0.9-6.2,1.6-7.7
			C87.5,27.8,88.3,27.6,89.2,27.6 M89.2,25.6L89.2,25.6c-1.2,0-2.4,0.3-3.4,0.9c-3.4,2-4.5,6.7-2.3,10.4l15,26
			c0.6,1.4,0.5,2.1,0.3,2.5c-9,1.8-13.6,4.3-14.6,7.8c-0.4,1.5-0.2,3,0.7,4.4c2.2,3.4,8.1,4.8,11.5,5.3l20.5,6.1
			c2.7,1.3,5.6,1.9,8.5,1.9c3.7,0,7.5-0.9,11.8-2.9c0.4-0.2,0.7-0.3,1-0.5c1.1-0.5,2.2-1.1,3.3-1.7l0.3-0.2
			c14.4-8,17.7-22.2,9.4-39.8c-0.4-1-1-2-1.7-2.9l-4.9-8.5c-1.1-2-3.3-3.2-5.6-3.2c-1.1,0-2.2,0.3-3.2,0.9c-1.6,0.9-2.7,2.5-3.1,4.3
			c-0.2,0-0.4,0-0.6,0c-0.1,0-0.1,0-0.2,0l-1.5-2.5c-1.5-2.5-4-4.1-6.8-4.1c-1.2,0-2.4,0.3-3.4,0.9c-2.6,1.5-3.8,4.5-3.4,7.5
			l-1.1-1.8c-1.4-2.5-4-4.1-6.8-4.1c-1.2,0-2.4,0.3-3.4,0.9c-2.6,1.5-3.8,4.5-3.4,7.5l-6.3-10.9C94.5,27.2,91.9,25.6,89.2,25.6
			L89.2,25.6z"/>
	</g>
</g>
</svg>
